<svg xmlns="http://www.w3.org/2000/svg" xmlns:xlink="http://www.w3.org/1999/xlink" width="80" height="29" viewBox="0 0 80 29">
  <defs>
    <polygon id="icon_site-a" points="0 27.342 0 .259 24.128 .259 24.128 27.342"/>
    <polygon id="icon_site-c" points=".386 .304 18.258 .304 18.258 28.431 .386 28.431"/>
  </defs>
  <g fill="none" fill-rule="evenodd">
    <g transform="translate(0 .509)">
      <mask id="icon_site-b" fill="#fff">
        <use xlink:href="#icon_site-a"/>
      </mask>
      <path fill="#FFF" d="M3.68337752,27.3422479 L-7.85468827e-05,27.3422479 L9.01396171,0.821869748 C9.32461463,0.687836134 9.75819342,0.560707283 10.3154836,0.440077031 C10.8719882,0.319852941 11.4744428,0.258928571 12.1220619,0.258928571 C12.4067943,0.258928571 12.7245164,0.286547619 13.0744428,0.340161064 C13.4239764,0.393368347 13.7668336,0.507093838 14.103407,0.681337535 C14.4403731,0.855581232 14.7577025,1.10293417 15.0557879,1.42420868 C15.3530879,1.74548319 15.5930486,2.18779412 15.7744919,2.75073529 L24.1279529,27.3422479 L20.2139617,27.3422479 C19.2604026,27.3422479 18.4175945,26.7005112 18.1336475,25.7590266 L11.966539,5.28234594 L5.7625135,25.7622759 C5.47778105,26.702542 4.63575847,27.3422479 3.68337752,27.3422479" mask="url(#icon_site-b)"/>
    </g>
    <path fill="#FFF" d="M31.2039273,27.8508852 L25.9196858,27.8508852 L29.631026,0.968616246 C29.8360334,0.942621849 30.0543937,0.915408964 30.2864998,0.888196078 C30.4918999,0.862201681 30.6910162,0.834988796 30.8842415,0.808182073 C31.0770741,0.781781513 31.2632302,0.767565826 31.4434953,0.767565826 C31.8036328,0.767565826 32.183407,0.808182073 32.5816397,0.888196078 C32.9794796,0.968616246 33.3525773,1.11645938 33.6993618,1.330507 C34.0469318,1.54496078 34.3359843,1.86014286 34.5680903,2.27442857 C34.7990182,2.69033894 34.9148748,3.23297199 34.9148748,3.90232773 L31.2039273,27.8508852 Z"/>
    <g transform="translate(36.132 .102)">
      <mask id="icon_site-d" fill="#fff">
        <use xlink:href="#icon_site-c"/>
      </mask>
      <path fill="#FFF" d="M2.0566323,21.5599972 C2.41873343,21.8556835 2.82050074,22.1566499 3.26114875,22.464521 C3.70140403,22.7723922 4.18721649,23.0538627 4.71819342,23.3081204 C5.24838488,23.5631905 5.82570447,23.7699272 6.44740304,23.9307675 C7.06870889,24.0912017 7.7422484,24.1724342 8.46762887,24.1724342 C9.01117329,24.1724342 9.54254296,24.1058235 10.0605596,23.9713838 C10.5785763,23.8373501 11.0376829,23.6298011 11.4402356,23.3483305 C11.8412175,23.0668599 12.1711144,22.6992829 12.4307118,22.2435686 C12.6895238,21.7882605 12.8191262,21.2257255 12.8191262,20.5555574 C12.8191262,19.859395 12.6765636,19.2700532 12.3918311,18.7875322 C12.1063132,18.3054174 11.7312518,17.8972241 11.2650761,17.5617339 C10.7985076,17.2274622 10.2608542,16.9390868 9.65250859,16.6982325 C9.04377025,16.4573782 8.40243495,16.2157115 7.72928817,15.9748571 C6.89983309,15.6799832 6.06487973,15.3587087 5.22324988,15.0102213 C4.38083456,14.6629524 3.62364261,14.2068319 2.95049583,13.6442969 C2.27617084,13.0817619 1.72634266,12.3652913 1.29904762,11.4948852 C0.871359843,10.624479 0.658105056,9.51931092 0.658105056,8.17938095 C0.658105056,6.89387675 0.903564065,5.75540336 1.39605302,4.76355462 C1.88814924,3.77333053 2.56168876,2.94963305 3.41627884,2.29286835 C4.27126166,1.6365098 5.2554541,1.14139776 6.3692489,0.805907563 C7.48265096,0.471229692 8.66163967,0.303484594 9.90503682,0.303484594 C10.7600196,0.303484594 11.556485,0.371313725 12.294433,0.504535014 C13.0327737,0.63897479 13.693353,0.799815126 14.2757781,0.987056022 C14.8589887,1.17470308 15.3506922,1.36844258 15.7528522,1.569493 C16.1538341,1.77054342 16.4582032,1.95169188 16.665567,2.11212605 C17.3905547,2.56784034 17.7534413,3.17058543 17.7534413,3.91995518 C17.7534413,4.24122969 17.6175552,4.67744818 17.345783,5.22617367 C17.0740108,5.77571148 16.6910947,6.31793838 16.1993913,6.85366667 C15.5517722,6.31793838 14.7093569,5.80901681 13.674109,5.3264958 C12.6376829,4.84478711 11.5498085,4.60312045 10.410486,4.60312045 C9.94391753,4.60312045 9.46438881,4.65064146 8.97268532,4.74405882 C8.48019637,4.83788235 8.0332646,4.99872269 7.63228277,5.22617367 C7.23012273,5.45403081 6.89983309,5.76230812 6.64141384,6.15059944 C6.38220913,6.53929692 6.25299951,7.04131373 6.25299951,7.65705602 C6.25299951,8.21959104 6.38220913,8.70861064 6.64141384,9.12411485 C6.89983309,9.53921289 7.24975945,9.90110364 7.69040746,10.2085686 C8.13066274,10.5168459 8.64278841,10.7914118 9.22521355,11.0326723 C9.80763868,11.2735266 10.410486,11.5147871 11.0317919,11.7552353 C11.8604615,12.0773221 12.702484,12.4189048 13.5574669,12.7803894 C14.4124497,13.1418739 15.1892784,13.6178964 15.8887383,14.2068319 C16.5881983,14.7961737 17.1576632,15.5268599 17.5979185,16.3964538 C18.0381738,17.2676723 18.2584978,18.3590308 18.2584978,19.6717479 C18.2584978,21.0916919 18.0189298,22.3442969 17.5397938,23.4287507 C17.0602651,24.5136106 16.3937948,25.4315378 15.5392047,26.1813137 C14.6842219,26.931902 13.6544723,27.4936246 12.4503486,27.8685126 C11.2454394,28.2434006 9.93056456,28.4314538 8.50611684,28.4314538 C6.66694158,28.4314538 5.16512518,28.236902 3.99948945,27.8482045 C2.83385371,27.4603193 1.99183112,27.1053333 1.47420717,26.7840588 C1.16316151,26.5700112 0.903564065,26.3157535 0.696593029,26.0200672 C0.489229259,25.7264118 0.385940108,25.3913277 0.385940108,25.0160336 C0.385940108,24.5607255 0.560706922,24.0111877 0.910633284,23.3686387 C1.26016691,22.7252773 1.64190476,22.1229384 2.0566323,21.5599972" mask="url(#icon_site-d)"/>
    </g>
    <path fill="#FFF" d="M60.7539323 3.71159384C60.576809 3.534507 60.414217 3.41509524 60.2657634 3.35295238 60.1173098 3.29080952 59.9515758 3.25994118 59.7689543 3.25994118 59.4319882 3.25994118 59.1723908 3.39153782 58.9897693 3.65391877 58.806755 3.91711204 58.7156406 4.28753221 58.7156406 4.76558543 58.7156406 5.83460504 59.0781345 6.36870868 59.8031222 6.36870868 60.0599705 6.36870868 60.2830437 6.30981513 60.4711635 6.19162185 60.659676 6.07342857 60.7539323 5.93777031 60.7539323 5.7842409L60.7539323 3.71159384zM60.7712126 6.51939496C60.457025 6.84432493 60.08 7.00638375 59.6405302 7.00638375 59.1036622 7.00638375 58.686971 6.82036134 58.3900638 6.44831653 58.0935493 6.07627171 57.9450957 5.5450112 57.9450957 4.85412885 57.9450957 4.3817619 58.0161807 3.97884874 58.159136 3.64538936 58.3016986 3.31192997 58.5031713 3.05645378 58.7627688 2.87896078 59.0223662 2.70187395 59.3208444 2.61333053 59.6578105 2.61333053 60.085891 2.61333053 60.451134 2.75792437 60.7539323 3.04711204L60.7539323.593890756C60.8053805.588204482 60.8568287.585361345 60.9082769.585361345 61.2904075.585361345 61.4820619.786005602 61.4820619 1.18729412L61.4820619 6.87356863 60.7712126 6.87356863 60.7712126 6.51939496zM62.7406186 2.66645658C62.7920668 2.66077031 62.843515 2.65792717 62.8949632 2.65792717 63.2770938 2.65792717 63.4687482 2.85857143 63.4687482 3.25985994L63.4687482 6.07659664C63.4687482 6.26546218 63.4974178 6.39096639 63.5543643 6.45270308 63.6113108 6.5152521 63.7197054 6.54612045 63.8795484 6.54612045L63.8795484 6.86495798C63.7601571 6.90598039 63.6026706 6.92669468 63.4086598 6.92669468 63.2547079 6.92669468 63.1290329 6.90029412 63.0320275 6.84708683 62.9346294 6.79387955 62.8619735 6.70980392 62.8136672 6.59485994 62.7649681 6.4795098 62.7406186 6.28617647 62.7406186 6.01445378L62.7406186 2.66645658zM62.6121944 1.34683473C62.6121944 1.19939776 62.6565734 1.07836134 62.7453314.983319328 62.8333039.889089636 62.9436622.84197479 63.0748355.84197479 63.2064016.84197479 63.3159745.889089636 63.4043397.983319328 63.4930977 1.07836134 63.5370839 1.19939776 63.5370839 1.34683473 63.5370839 1.48289916 63.4930977 1.59621849 63.4043397 1.6880112 63.3159745 1.77939776 63.2064016 1.82529412 63.0748355 1.82529412 62.9436622 1.82529412 62.8333039 1.77939776 62.7453314 1.6880112 62.6565734 1.59621849 62.6121944 1.48289916 62.6121944 1.34683473zM67.3997447 3.71159384C67.1197251 3.41062745 66.7913991 3.25994118 66.4147668 3.25994118 66.0778007 3.25994118 65.8182032 3.39153782 65.6355817 3.65391877 65.4525675 3.91711204 65.3614531 4.28753221 65.3614531 4.76558543 65.3614531 5.83460504 65.723947 6.36870868 66.4489347 6.36870868 66.705783 6.36870868 66.9288562 6.30981513 67.1169759 6.19162185 67.3054885 6.07342857 67.3997447 5.93777031 67.3997447 5.7842409L67.3997447 3.71159384zM67.417025 6.51939496C67.1028375 6.84432493 66.7258125 7.00638375 66.2863427 7.00638375 65.7494747 7.00638375 65.3327835 6.82036134 65.0358763 6.44831653 64.7393618 6.07627171 64.5909082 5.5450112 64.5909082 4.85412885 64.5909082 4.3817619 64.6604222 3.97884874 64.8006284 3.64538936 64.9400491 3.31192997 65.1387727 3.05645378 65.395621 2.87896078 65.6528621 2.70187395 65.9493765 2.61333053 66.2863427 2.61333053 66.7599804 2.61333053 67.1370054 2.76401681 67.417025 3.06498319 67.4453019 2.95288235 67.5065685 2.86108964 67.6012175 2.79041737 67.695081 2.7197451 67.7995484 2.68440896 67.9138341 2.68440896 67.9990574 2.68440896 68.0705351 2.69009524 68.1278743 2.70187395L68.1278743 6.58113165C68.1278743 7.13066947 68.0622877 7.56891877 67.9307216 7.89669188 67.7995484 8.22405882 67.5894354 8.46653782 67.3011684 8.62291036 67.0129013 8.77928291 66.63784 8.85767227 66.1751988 8.85767227 65.7011684 8.85767227 65.3013648 8.76587955 64.9757879 8.58310644 64.8728915 8.51812045 64.8006284 8.45597759 64.7574276 8.39708403 64.7146195 8.33819048 64.6934119 8.27564146 64.6934119 8.21106162 64.6934119 8.09286835 64.784919 7.93080952 64.9675405 7.72407283 65.0072067 7.77728011 65.1002847 7.84795238 65.2459892 7.9364958 65.3913009 8.02503922 65.5425037 8.09286835 65.6995974 8.13998319 65.8566912 8.1875042 66.0153559 8.21106162 66.1751988 8.21106162 66.466215 8.21106162 66.7030339 8.16232213 66.8856554 8.06484314 67.0682769 7.96777031 67.202592 7.80814846 67.2886009 7.58678992 67.374217 7.36502521 67.417025 7.02994118 67.417025 6.58113165L67.417025 6.51939496zM69.386431 2.66645658C69.4378792 2.66077031 69.4893274 2.65792717 69.5407757 2.65792717 69.9229062 2.65792717 70.1145606 2.85857143 70.1145606 3.25985994L70.1145606 6.07659664C70.1145606 6.26546218 70.1428375 6.39096639 70.199784 6.45270308 70.2571232 6.5152521 70.3655179 6.54612045 70.5253608 6.54612045L70.5253608 6.86495798C70.4055768 6.90598039 70.2484831 6.92669468 70.0544723 6.92669468 69.9005204 6.92669468 69.7744526 6.90029412 69.6774472 6.84708683 69.5804418 6.79387955 69.507786 6.70980392 69.4594796 6.59485994 69.4107806 6.4795098 69.386431 6.28617647 69.386431 6.01445378L69.386431 2.66645658zM69.2580069 1.34683473C69.2580069 1.19939776 69.3019931 1.07836134 69.3907511.983319328 69.4791163.889089636 69.589082.84197479 69.720648.84197479 69.8518213.84197479 69.9613942.889089636 70.0497595.983319328 70.1385174 1.07836134 70.1828964 1.19939776 70.1828964 1.34683473 70.1828964 1.48289916 70.1385174 1.59621849 70.0497595 1.6880112 69.9613942 1.77939776 69.8518213 1.82529412 69.720648 1.82529412 69.589082 1.82529412 69.4791163 1.77939776 69.3907511 1.6880112 69.3019931 1.59621849 69.2580069 1.48289916 69.2580069 1.34683473zM71.44216 1.4352563C71.4936082 1.42957003 71.5446637 1.42672689 71.5961119 1.42672689 71.9786352 1.42672689 72.1702896 1.62737115 72.1702896 2.02865966L72.1702896 2.71101261 73.4462838 2.71101261 73.4462838 3.34868768 72.1702896 3.34868768 72.1702896 5.6337577C72.1702896 6.11790336 72.3552676 6.35997619 72.7267943 6.35997619 72.8237997 6.35997619 72.9192342 6.3392619 73.0134904 6.2982395 73.1077467 6.25681092 73.1949337 6.20360364 73.2746588 6.13861765 73.3543839 6.07363165 73.408974 6.02042437 73.4372509 5.97940196 73.6029848 6.19182493 73.6858517 6.35713305 73.6858517 6.47492017 73.6858517 6.55777731 73.6312617 6.64307143 73.5232597 6.73202101 73.4144723 6.82056443 73.2821208 6.88839356 73.1246343 6.9355084 72.9679332 6.98262325 72.7978792 7.00658683 72.6152577 7.00658683 72.0442219 7.00658683 71.681728 6.78522829 71.5277761 6.34210504 71.4704369 6.17720308 71.44216 5.92294538 71.44216 5.58055042L71.44216 1.4352563zM76.8031419 4.77460224L76.554541 4.77460224C76.0349534 4.77460224 75.6394698 4.85014846 75.3684831 5.00042857 75.0971036 5.15111485 74.9620029 5.37409804 74.9620029 5.66897199 74.9620029 5.88748739 75.0228768 6.05401401 75.1458027 6.16977031 75.2687285 6.28471429 75.4501718 6.34198319 75.6897398 6.34198319 75.8782523 6.34198319 76.0589102 6.30664706 76.233677 6.23597479 76.4076583 6.16530252 76.5462936 6.07635294 76.6487973 5.96993838 76.7516937 5.86392997 76.8031419 5.76645098 76.8031419 5.67790756L76.8031419 4.77460224zM74.6533137 3.64059664C74.6073638 3.5642381 74.5692685 3.48138095 74.537457 3.39283754 74.5060383 3.30429412 74.4907216 3.23321569 74.4907216 3.1800084 74.4907216 3.07968627 74.5676976 2.98545658 74.7216495 2.89691317 74.8759941 2.80796359 75.0688267 2.73891597 75.3001473 2.68855182 75.5314678 2.63859384 75.7612175 2.61341176 75.9893962 2.61341176 76.5258714 2.61341176 76.9142857 2.73160504 77.1542464 2.96758543 77.3938144 3.20397199 77.5139912 3.60241737 77.5139912 4.16332773L77.5139912 5.90820168C77.5139912 6.0735098 77.5222386 6.19901401 77.5395189 6.28471429 77.5567992 6.37041457 77.5893962 6.42930812 77.6380952 6.46180112 77.6864016 6.49429412 77.7849779 6.51013445 77.9334315 6.51013445L77.9334315 6.86471429C77.8136475 6.90614286 77.6738341 6.92685714 77.5139912 6.92685714 77.0910162 6.92685714 76.8600884 6.75870588 76.8200295 6.4219972 76.637408 6.61086275 76.4418262 6.74652101 76.233677 6.82937815 76.025135 6.91223529 75.7867452 6.9532577 75.5185076 6.9532577 75.112813 6.9532577 74.79784 6.8472493 74.5720177 6.63442017 74.3461954 6.4219972 74.2338733 6.11493838 74.2338733 5.71364986 74.2338733 5.24087675 74.4263132 4.87654902 74.8119784 4.61944818 75.1972509 4.36234734 75.7380461 4.22262745 76.434757 4.19866387 76.6059892 4.19866387 76.7261659 4.20191317 76.7945017 4.20759944L76.7945017 4.07478431C76.7945017 3.7795042 76.724595 3.56992437 76.5843888 3.44604482 76.4445754 3.32216527 76.2179676 3.26002241 75.9037801 3.26002241 75.6810997 3.26002241 75.4800196 3.28804762 75.3001473 3.34409804 75.1202749 3.40014846 74.9329406 3.49884594 74.7389298 3.64059664L74.6533137 3.64059664zM78.815513.593971989C78.8669612.587879552 78.9184094.585442577 78.9698576.585442577 79.3519882.585442577 79.5436426.786086835 79.5436426 1.18737535L79.5436426 6.04101681C79.5436426 6.20632493 79.5550319 6.31883193 79.5778105 6.37772549 79.6005891 6.43661905 79.640648 6.47926611 79.6975945 6.50607283 79.7549337 6.53247339 79.8401571 6.54587675 79.9544428 6.54587675L79.9544428 6.86471429C79.8350515 6.90614286 79.677565 6.92685714 79.4835542 6.92685714 79.3296024 6.92685714 79.2039273 6.90005042 79.1069219 6.8472493 79.0095238 6.79404202 78.9368679 6.70996639 78.8885616 6.59461625 78.8398625 6.47926611 78.815513 6.28633894 78.815513 6.01461625L78.815513.593971989z"/>
  </g>
</svg>
